<?xml version="1.0" encoding="UTF-8"?>
<svg id="_レイヤー_2" data-name="レイヤー 2" xmlns="http://www.w3.org/2000/svg" viewBox="0 0 150 113.79">
  <defs>
    <style>
      .cls-1, .cls-2 {
        fill: #3c0f02;
      }

      .cls-2 {
        isolation: isolate;
        opacity: .2;
      }
    </style>
  </defs>
  <g id="PC">
    <g id="section_SERVICE">
      <g id="SERVICE_items">
        <g>
          <path class="cls-2" d="M118.97,15.52v10.34h-15.52c-5.71,0-10.34,4.63-10.34,10.34v51.72H15.52c-5.71,0-10.34-4.63-10.34-10.34V15.52c0-5.71,4.63-10.34,10.34-10.34h93.1c5.71,0,10.34,4.63,10.34,10.34Z"/>
          <path class="cls-1" d="M134.48,20.69h-10.34v-5.17c0-8.57-6.95-15.52-15.52-15.52H15.52C6.95,0,0,6.95,0,15.52v62.07c0,8.57,6.95,15.52,15.52,15.52h72.41v5.17c0,8.57,6.95,15.52,15.52,15.52h31.03c8.57,0,15.52-6.95,15.52-15.52v-62.07c0-8.57-6.95-15.52-15.52-15.52ZM15.52,82.76c-2.86,0-5.17-2.32-5.17-5.17V15.52c0-2.86,2.32-5.17,5.17-5.17h93.1c2.86,0,5.17,2.32,5.17,5.17v5.17h-10.34c-8.57,0-15.52,6.95-15.52,15.52v46.55H15.52ZM139.66,98.28c0,2.86-2.32,5.17-5.17,5.17h-31.03c-2.86,0-5.17-2.32-5.17-5.17v-62.07c0-2.86,2.32-5.17,5.17-5.17h31.03c2.86,0,5.17,2.32,5.17,5.17v62.07ZM77.59,108.62c0,2.86-2.32,5.17-5.17,5.17h-25.86c-2.86,0-5.17-2.32-5.17-5.17s2.32-5.17,5.17-5.17h25.86c2.86,0,5.17,2.32,5.17,5.17ZM129.31,46.55c0,2.86-2.32,5.17-5.17,5.17h-10.34c-2.86,0-5.17-2.32-5.17-5.17s2.32-5.17,5.17-5.17h10.34c2.86,0,5.17,2.32,5.17,5.17Z"/>
        </g>
      </g>
    </g>
  </g>
</svg>