<?xml version="1.0" encoding="UTF-8"?>
<svg id="_レイヤー_2" data-name="レイヤー 2" xmlns="http://www.w3.org/2000/svg" viewBox="0 0 150 133.93">
  <defs>
    <style>
      .cls-1, .cls-2 {
        fill: #3c0f02;
      }

      .cls-2 {
        isolation: isolate;
        opacity: .2;
      }
    </style>
  </defs>
  <g id="PC">
    <g id="section_SERVICE">
      <g id="SERVICE_items">
        <g>
          <path class="cls-2" d="M144.64,5.36c0,21.97-21.19,45.16-39.27,60.97-5.08-9.09-12.58-16.61-21.67-21.7,15.78-18.08,38.97-39.27,60.94-39.27Z"/>
          <path class="cls-1" d="M150,5.36c0-2.96-2.4-5.36-5.36-5.36-29.52,0-59.81,33.29-76.63,55.33-21.22-6.5-43.69,5.43-50.18,26.65-1.17,3.81-1.76,7.78-1.76,11.77,0,20.68-13.09,29.95-13.71,30.38-2.45,1.66-3.1,4.99-1.44,7.44,1,1.47,2.66,2.36,4.44,2.36h50.89c22.19,0,40.18-17.99,40.18-40.18,0-3.99-.59-7.95-1.76-11.77,22.05-16.82,55.33-47.11,55.33-76.63ZM56.25,123.22H17.83c4.52-6.42,8.95-16.13,8.95-29.47,0-16.27,13.19-29.47,29.47-29.47s29.47,13.19,29.47,29.47-13.19,29.47-29.47,29.47ZM77.96,59.97c2.29-2.97,4.55-5.77,6.76-8.4,5.41,3.65,10.07,8.31,13.72,13.72-2.63,2.21-5.44,4.46-8.4,6.76-3.12-4.84-7.24-8.95-12.07-12.07ZM106.55,58.17c-4.04-5.71-9.03-10.69-14.73-14.73,21.28-23.12,37.33-30.13,46.81-32.08-1.91,9.48-8.95,25.53-32.08,46.82Z"/>
        </g>
      </g>
    </g>
  </g>
</svg>