<?xml version="1.0" encoding="UTF-8"?>
<svg id="_レイヤー_2" data-name="レイヤー 2" xmlns="http://www.w3.org/2000/svg" viewBox="0 0 452.61 67.28">
  <defs>
    <style>
      .cls-1 {
        fill: none;
      }

      .cls-2 {
        fill: #fff;
      }

      .cls-3 {
        fill: #3c0f02;
      }
    </style>
  </defs>
  <g id="PC">
    <g>
      <path class="cls-1" d="M294.27,16.4c-7.7,0-11.29,3.86-11.29,12.15v4.18h22.57v-4.18c0-8.29-3.59-12.15-11.29-12.15Z"/>
      <path class="cls-1" d="M106.5,16.4c-9.81,0-16.66,7.09-16.66,17.24s6.85,17.24,16.66,17.24,16.66-7.09,16.66-17.24-6.85-17.24-16.66-17.24Z"/>
      <path class="cls-2" d="M51.3,25.05h14.48c-3.54-14.05-15.73-23.05-31.38-23.05C15.63,2,2,15.31,2,33.64s13.63,31.64,32.41,31.64c15.65,0,27.83-9,31.38-23.05h-14.48c-2.88,6.69-9.14,10.66-16.9,10.66-10.99,0-18.66-7.91-18.66-19.24s7.67-19.24,18.66-19.24c7.75,0,14.02,3.97,16.9,10.66Z"/>
      <path class="cls-2" d="M106.5,2c-18.78,0-32.41,13.31-32.41,31.64s13.63,31.64,32.41,31.64,32.41-13.31,32.41-31.64S125.28,2,106.5,2ZM106.5,52.88c-10.99,0-18.66-7.91-18.66-19.24s7.67-19.24,18.66-19.24,18.66,7.91,18.66,19.24-7.67,19.24-18.66,19.24Z"/>
      <path class="cls-2" d="M175.04,2c-16.45,0-25.88,9.26-25.88,25.4v36.63h13.55V27.4c0-8.5,4.26-13,12.33-13s12.33,4.5,12.33,13v36.63h13.55V27.4c0-16.14-9.43-25.4-25.88-25.4Z"/>
      <polygon class="cls-2" points="227.6 64.03 241.15 64.03 241.15 15.65 258.33 15.65 258.33 3.25 210.51 3.25 210.51 15.65 227.6 15.65 227.6 64.03"/>
      <path class="cls-2" d="M294.37,2c-16.87,0-26.55,9.68-26.55,26.55v35.48h13.17v-17.85h26.57v17.85h13.55V28.55c0-16.87-9.75-26.55-26.74-26.55ZM307.56,34.73h-26.57v-6.18c0-9.39,4.47-14.15,13.29-14.15s13.29,4.76,13.29,14.15v6.18Z"/>
      <path class="cls-2" d="M380.67,25.05h14.48c-3.54-14.05-15.73-23.05-31.38-23.05-18.78,0-32.41,13.31-32.41,31.64s13.63,31.64,32.41,31.64c15.65,0,27.83-9,31.38-23.05h-14.48c-2.88,6.69-9.14,10.66-16.9,10.66-10.99,0-18.66-7.91-18.66-19.24s7.67-19.24,18.66-19.24c7.75,0,14.02,3.97,16.9,10.66Z"/>
      <polygon class="cls-2" points="402.79 15.65 419.88 15.65 419.88 64.03 433.43 64.03 433.43 15.65 450.61 15.65 450.61 3.25 402.79 3.25 402.79 15.65"/>
      <path class="cls-3" d="M34.41,16.4c7.14,0,12.86,3.75,15.29,10.02l.25.64h18.33l-.26-1.21C64.68,10.15,51.48,0,34.41,0,14.47,0,0,14.15,0,33.64s14.47,33.64,34.41,33.64c17.08,0,30.27-10.14,33.62-25.85l.26-1.21h-18.33l-.25.64c-2.43,6.27-8.15,10.02-15.29,10.02-9.81,0-16.66-7.09-16.66-17.24s6.85-17.24,16.66-17.24ZM15.74,33.64c0,11.33,7.67,19.24,18.66,19.24,7.75,0,14.02-3.97,16.9-10.66h14.48c-3.54,14.05-15.73,23.05-31.38,23.05-18.78,0-32.41-13.31-32.41-31.64S15.63,2,34.41,2c15.65,0,27.83,9,31.38,23.05h-14.48c-2.88-6.69-9.14-10.66-16.9-10.66-10.99,0-18.66,7.91-18.66,19.24Z"/>
      <path class="cls-3" d="M106.5,0c-19.94,0-34.41,14.15-34.41,33.64s14.47,33.64,34.41,33.64,34.41-14.15,34.41-33.64S126.44,0,106.5,0ZM106.5,65.28c-18.78,0-32.41-13.31-32.41-31.64S87.72,2,106.5,2s32.41,13.31,32.41,31.64-13.63,31.64-32.41,31.64Z"/>
      <path class="cls-3" d="M106.5,14.4c-10.99,0-18.66,7.91-18.66,19.24s7.67,19.24,18.66,19.24,18.66-7.91,18.66-19.24-7.67-19.24-18.66-19.24ZM106.5,50.88c-9.81,0-16.66-7.09-16.66-17.24s6.85-17.24,16.66-17.24,16.66,7.09,16.66,17.24-6.85,17.24-16.66,17.24Z"/>
      <path class="cls-3" d="M175.04,0c-17.46,0-27.88,10.24-27.88,27.4v38.63h17.55V27.4c0-7.4,3.38-11,10.33-11s10.33,3.6,10.33,11v38.63h17.55V27.4c0-17.16-10.42-27.4-27.88-27.4ZM200.92,64.03h-13.55V27.4c0-8.5-4.26-13-12.33-13s-12.33,4.5-12.33,13v36.63h-13.55V27.4c0-16.14,9.43-25.4,25.88-25.4s25.88,9.26,25.88,25.4v36.63Z"/>
      <path class="cls-3" d="M208.51,17.65h17.09v48.38h17.55V17.65h17.18V1.25h-51.82v16.4ZM210.51,3.25h47.82v12.4h-17.18v48.38h-13.55V15.65h-17.09V3.25Z"/>
      <path class="cls-3" d="M294.37,0c-18.14,0-28.55,10.41-28.55,28.55v37.48h17.17v-17.85h22.57v17.85h17.55V28.55c0-18.14-10.48-28.55-28.74-28.55ZM321.11,64.03h-13.55v-17.85h-26.57v17.85h-13.17V28.55c0-16.87,9.68-26.55,26.55-26.55s26.74,9.68,26.74,26.55v35.48Z"/>
      <path class="cls-3" d="M294.27,14.4c-8.82,0-13.29,4.76-13.29,14.15v6.18h26.57v-6.18c0-9.39-4.47-14.15-13.29-14.15ZM305.56,32.73h-22.57v-4.18c0-8.29,3.59-12.15,11.29-12.15s11.29,3.86,11.29,12.15v4.18Z"/>
      <path class="cls-3" d="M363.78,16.4c7.14,0,12.86,3.75,15.29,10.02l.25.64h18.33l-.26-1.21c-3.34-15.7-16.54-25.85-33.62-25.85-19.94,0-34.41,14.15-34.41,33.64s14.47,33.64,34.41,33.64c17.08,0,30.27-10.14,33.62-25.85l.26-1.21h-18.33l-.25.64c-2.43,6.27-8.15,10.02-15.29,10.02-9.81,0-16.66-7.09-16.66-17.24s6.85-17.24,16.66-17.24ZM345.11,33.64c0,11.33,7.67,19.24,18.66,19.24,7.75,0,14.02-3.97,16.9-10.66h14.48c-3.54,14.05-15.73,23.05-31.38,23.05-18.78,0-32.41-13.31-32.41-31.64s13.63-31.64,32.41-31.64c15.65,0,27.83,9,31.38,23.05h-14.48c-2.88-6.69-9.14-10.66-16.9-10.66-10.99,0-18.66,7.91-18.66,19.24Z"/>
      <path class="cls-3" d="M400.79,1.25v16.4h17.09v48.38h17.55V17.65h17.18V1.25h-51.82ZM450.61,15.65h-17.18v48.38h-13.55V15.65h-17.09V3.25h47.82v12.4Z"/>
    </g>
  </g>
</svg>