<?xml version="1.0" encoding="UTF-8"?>
<svg id="_レイヤー_2" data-name="レイヤー 2" xmlns="http://www.w3.org/2000/svg" viewBox="0 0 331.47 67.28">
  <defs>
    <style>
      .cls-1 {
        fill: none;
      }

      .cls-2 {
        fill: #fff;
      }

      .cls-3 {
        fill: #3c0f02;
      }
    </style>
  </defs>
  <g id="PC">
    <g>
      <path class="cls-1" d="M122.34,16.4c-9.81,0-16.66,7.09-16.66,17.24s6.85,17.24,16.66,17.24,16.66-7.09,16.66-17.24-6.85-17.24-16.66-17.24Z"/>
      <path class="cls-1" d="M191.08,17.65h-9.08v12.3h9.08c6.26,0,7.06-3.31,7.06-6.2s-.84-6.1-7.06-6.1Z"/>
      <path class="cls-2" d="M56.87,52.88c-3.46,0-9.25-1.41-9.25-10.89V3.25h-13.55v38.74c0,9.47-5.8,10.89-9.26,10.89s-9.25-1.41-9.25-10.89V3.25H2v38.74c0,14.8,7.82,23.29,21.46,23.29,7.28,0,13-2.83,16.54-8.19l.83-1.26.83,1.26c3.54,5.36,9.26,8.19,16.54,8.19,13.64,0,21.46-8.49,21.46-23.29V3.25h-13.55v38.74c0,9.47-5.8,10.89-9.26,10.89Z"/>
      <path class="cls-2" d="M122.34,2c-18.78,0-32.41,13.31-32.41,31.64s13.63,31.64,32.41,31.64,32.41-13.31,32.41-31.64S141.12,2,122.34,2ZM122.34,52.88c-10.99,0-18.66-7.91-18.66-19.24s7.67-19.24,18.66-19.24,18.66,7.91,18.66,19.24-7.67,19.24-18.66,19.24Z"/>
      <path class="cls-2" d="M202.69,42.22c7.22-3.01,11.19-9.57,11.19-18.47,0-7.66-2.99-20.5-23-20.5h-24.44v60.78h13.55v-19.68h8.21l11.14,19.68h16.01l-13.77-21.35,1.1-.46ZM191.08,31.95h-11.08V15.65h11.08c6.01,0,9.06,2.73,9.06,8.1s-3.05,8.2-9.06,8.2Z"/>
      <polygon class="cls-2" points="276.21 3.25 259.56 3.25 239.8 31.01 239.8 3.25 226.25 3.25 226.25 64.03 239.8 64.03 239.8 35.49 260.04 64.03 277.17 64.03 253.27 32.96 276.21 3.25"/>
      <path class="cls-2" d="M309.84,27.9c-5.64-1.02-11.48-2.07-11.48-7.13,0-3.43,2.3-7.43,8.78-7.43,4.99,0,8.17,2.42,8.7,6.53h12.6c-.92-10.89-9.25-17.87-21.49-17.87-12.9,0-21.56,7.78-21.56,19.35,0,14.45,10.83,16.43,19.53,18.02,5.6,1.03,11.38,2.09,11.38,7.13,0,3.39-1.64,7.43-9.45,7.43-7.05,0-9.07-3.3-9.4-6.43h-13.17c.75,10.99,9.3,17.77,22.57,17.77s22.61-7.6,22.61-19.35c0-14.47-10.88-16.44-19.62-18.02Z"/>
      <path class="cls-3" d="M64.12,41.99c0,5.98-2.37,8.89-7.26,8.89s-7.25-2.99-7.25-8.89V1.25h-17.55v40.74c0,5.9-2.44,8.89-7.26,8.89s-7.25-2.91-7.25-8.89V1.25H0v40.74c0,15.83,8.77,25.29,23.46,25.29,7.44,0,13.41-2.73,17.38-7.91,3.96,5.18,9.93,7.91,17.37,7.91,14.69,0,23.46-9.45,23.46-25.29V1.25h-17.55v40.74ZM66.12,3.25h13.55v38.74c0,14.8-7.82,23.29-21.46,23.29-7.28,0-13-2.83-16.54-8.19l-.83-1.26-.83,1.26c-3.54,5.36-9.26,8.19-16.54,8.19-13.64,0-21.46-8.49-21.46-23.29V3.25h13.55v38.74c0,9.47,5.8,10.89,9.25,10.89s9.26-1.41,9.26-10.89V3.25h13.55v38.74c0,9.47,5.8,10.89,9.25,10.89s9.26-1.41,9.26-10.89V3.25Z"/>
      <path class="cls-3" d="M122.34,0c-19.94,0-34.41,14.15-34.41,33.64s14.47,33.64,34.41,33.64,34.41-14.15,34.41-33.64S142.28,0,122.34,0ZM122.34,65.28c-18.78,0-32.41-13.31-32.41-31.64S103.56,2,122.34,2s32.41,13.31,32.41,31.64-13.63,31.64-32.41,31.64Z"/>
      <path class="cls-3" d="M122.34,14.4c-10.99,0-18.66,7.91-18.66,19.24s7.67,19.24,18.66,19.24,18.66-7.91,18.66-19.24-7.67-19.24-18.66-19.24ZM122.34,50.88c-9.81,0-16.66-7.09-16.66-17.24s6.85-17.24,16.66-17.24,16.66,7.09,16.66,17.24-6.85,17.24-16.66,17.24Z"/>
      <path class="cls-3" d="M215.88,23.75c0-14.3-9.11-22.5-25-22.5h-26.44v64.78h17.55v-19.68h5.04l11.14,19.68h20.85l-14.47-22.45c7.32-3.52,11.34-10.52,11.34-19.83ZM199.34,64.03l-11.14-19.68h-8.21v19.68h-13.55V3.25h24.44c20.01,0,23,12.85,23,20.5,0,8.9-3.97,15.46-11.19,18.47l-1.1.46,13.77,21.35h-16.01Z"/>
      <path class="cls-3" d="M191.08,15.65h-11.08v16.3h11.08c6.01,0,9.06-2.76,9.06-8.2s-3.05-8.1-9.06-8.1ZM191.08,29.95h-9.08v-12.3h9.08c6.22,0,7.06,3.09,7.06,6.1s-.8,6.2-7.06,6.2Z"/>
      <path class="cls-3" d="M280.28,1.25h-21.75l-16.72,23.5V1.25h-17.55v64.78h17.55v-24.26l17.2,24.26h22.23l-25.44-33.06,24.48-31.72ZM260.04,64.03l-20.24-28.54v28.54h-13.55V3.25h13.55v27.76l19.75-27.76h16.65l-22.94,29.72,23.9,31.06h-17.13Z"/>
      <path class="cls-3" d="M310.2,25.93c-6.12-1.1-9.83-2-9.83-5.16,0-3.4,2.53-5.43,6.78-5.43s6.68,1.97,6.78,5.55l.03.97h16.61l-.04-1.04c-.5-12.46-9.97-20.83-23.56-20.83s-23.56,8.78-23.56,21.35c0,16.12,12.24,18.36,21.17,19.99,6.06,1.11,9.74,2.01,9.74,5.16,0,2.33-.77,5.43-7.45,5.43s-7.45-3.1-7.45-5.43v-1h-17.19l.02,1.02c.3,12.61,9.96,20.75,24.61,20.75s24.61-8.38,24.61-21.35c0-16.14-12.29-18.37-21.27-19.99ZM306.85,65.28c-13.27,0-21.82-6.78-22.57-17.77h13.17c.33,3.14,2.35,6.43,9.4,6.43,7.81,0,9.45-4.04,9.45-7.43,0-5.04-5.78-6.1-11.38-7.13-8.7-1.59-19.53-3.57-19.53-18.02,0-11.57,8.66-19.35,21.56-19.35s20.58,6.98,21.49,17.87h-12.6c-.53-4.11-3.71-6.53-8.7-6.53-6.48,0-8.78,4-8.78,7.43,0,5.06,5.83,6.11,11.48,7.13,8.74,1.58,19.62,3.55,19.62,18.02,0,11.75-8.88,19.35-22.61,19.35Z"/>
    </g>
  </g>
</svg>