<?xml version="1.0" encoding="UTF-8"?>
<svg id="_レイヤー_2" data-name="レイヤー 2" xmlns="http://www.w3.org/2000/svg" viewBox="0 0 311.4 67.28">
  <defs>
    <style>
      .cls-1 {
        fill: none;
      }

      .cls-2 {
        fill: #fff;
      }

      .cls-3 {
        fill: #3c0f02;
      }
    </style>
  </defs>
  <g id="PC">
    <g>
      <path class="cls-1" d="M158.05,16.4c-9.81,0-16.66,7.09-16.66,17.24s6.85,17.24,16.66,17.24,16.66-7.09,16.66-17.24-6.85-17.24-16.66-17.24Z"/>
      <path class="cls-1" d="M96.9,40.4h-12.63v9.23h12.63c3.4,0,5.05-1.49,5.05-4.57,0-2.25-1.33-4.66-5.05-4.66Z"/>
      <path class="cls-1" d="M99.64,21.83c0-2.17-.56-4.18-4.66-4.18h-10.71v8.27h10.71c3.09,0,4.66-1.38,4.66-4.09Z"/>
      <path class="cls-1" d="M28.45,16.4c-7.7,0-11.29,3.86-11.29,12.15v4.18h22.57v-4.18c0-8.29-3.59-12.15-11.29-12.15Z"/>
      <path class="cls-2" d="M28.55,2C11.68,2,2,11.68,2,28.55v35.48h13.17v-17.85h26.57v17.85h13.55V28.55c0-16.87-9.75-26.55-26.74-26.55ZM41.74,34.73H15.17v-6.18c0-9.39,4.47-14.15,13.29-14.15s13.29,4.76,13.29,14.15v6.18Z"/>
      <path class="cls-2" d="M108.08,33.43l-.66-.24v-1.49l.52-.28c4.55-2.46,7.06-6.95,7.06-12.66,0-9.71-6.52-15.51-17.43-15.51h-28.85v60.78h31.35c11.15,0,17.81-6.05,17.81-16.18,0-6.91-3.57-12.16-9.8-14.42ZM82.27,15.65h12.71c4.42,0,6.66,2.08,6.66,6.18,0,3.81-2.49,6.09-6.66,6.09h-12.71v-12.27ZM96.9,51.63h-14.63v-13.23h14.63c4.87,0,7.05,3.35,7.05,6.66,0,4.17-2.57,6.57-7.05,6.57Z"/>
      <path class="cls-2" d="M158.05,2c-18.78,0-32.41,13.31-32.41,31.64s13.63,31.64,32.41,31.64,32.41-13.31,32.41-31.64-13.63-31.64-32.41-31.64ZM158.05,52.88c-10.99,0-18.66-7.91-18.66-19.24s7.67-19.24,18.66-19.24,18.66,7.91,18.66,19.24-7.67,19.24-18.66,19.24Z"/>
      <path class="cls-2" d="M226.5,52.88c-8,0-12.23-4.5-12.23-13V3.25h-13.55v36.63c0,16.14,9.43,25.4,25.88,25.4s25.49-9.49,25.49-25.4V3.25h-13.17v36.63c0,8.63-4.18,13-12.42,13Z"/>
      <polygon class="cls-2" points="261.58 15.65 278.67 15.65 278.67 64.03 292.22 64.03 292.22 15.65 309.4 15.65 309.4 3.25 261.58 3.25 261.58 15.65"/>
      <path class="cls-3" d="M28.55,0C10.41,0,0,10.41,0,28.55v37.48h17.17v-17.85h22.57v17.85h17.55V28.55C57.29,10.41,46.82,0,28.55,0ZM55.29,64.03h-13.55v-17.85H15.17v17.85H2V28.55C2,11.68,11.68,2,28.55,2s26.74,9.68,26.74,26.55v35.48Z"/>
      <path class="cls-3" d="M28.45,14.4c-8.82,0-13.29,4.76-13.29,14.15v6.18h26.57v-6.18c0-9.39-4.47-14.15-13.29-14.15ZM39.74,32.73h-22.57v-4.18c0-8.29,3.59-12.15,11.29-12.15s11.29,3.86,11.29,12.15v4.18Z"/>
      <path class="cls-3" d="M110.42,32.24c4.26-2.95,6.58-7.67,6.58-13.48,0-10.8-7.45-17.51-19.43-17.51h-30.85v64.78h33.35c12.22,0,19.81-6.97,19.81-18.18,0-7.16-3.42-12.76-9.46-15.61ZM100.07,64.03h-31.35V3.25h28.85c10.91,0,17.43,5.8,17.43,15.51,0,5.7-2.51,10.2-7.06,12.66l-.52.28v1.49l.66.24c6.23,2.26,9.8,7.51,9.8,14.42,0,10.13-6.66,16.18-17.81,16.18Z"/>
      <path class="cls-3" d="M96.9,38.4h-14.63v13.23h14.63c4.48,0,7.05-2.39,7.05-6.57,0-3.32-2.18-6.66-7.05-6.66ZM96.9,49.63h-12.63v-9.23h12.63c3.72,0,5.05,2.41,5.05,4.66,0,3.07-1.65,4.57-5.05,4.57Z"/>
      <path class="cls-3" d="M101.64,21.83c0-4.1-2.24-6.18-6.66-6.18h-12.71v12.27h12.71c4.17,0,6.66-2.28,6.66-6.09ZM84.27,17.65h10.71c4.1,0,4.66,2.01,4.66,4.18,0,2.71-1.57,4.09-4.66,4.09h-10.71v-8.27Z"/>
      <path class="cls-3" d="M158.05,0c-19.94,0-34.41,14.15-34.41,33.64s14.47,33.64,34.41,33.64,34.41-14.15,34.41-33.64S177.99,0,158.05,0ZM158.05,65.28c-18.78,0-32.41-13.31-32.41-31.64s13.63-31.64,32.41-31.64,32.41,13.31,32.41,31.64-13.63,31.64-32.41,31.64Z"/>
      <path class="cls-3" d="M158.05,14.4c-10.99,0-18.66,7.91-18.66,19.24s7.67,19.24,18.66,19.24,18.66-7.91,18.66-19.24-7.67-19.24-18.66-19.24ZM158.05,50.88c-9.81,0-16.66-7.09-16.66-17.24s6.85-17.24,16.66-17.24,16.66,7.09,16.66,17.24-6.85,17.24-16.66,17.24Z"/>
      <path class="cls-3" d="M236.92,39.88c0,7.5-3.31,11-10.42,11s-10.23-3.6-10.23-11V1.25h-17.55v38.63c0,17.16,10.42,27.4,27.88,27.4s27.49-10.24,27.49-27.4V1.25h-17.17v38.63ZM238.92,3.25h13.17v36.63c0,15.9-9.53,25.4-25.49,25.4s-25.88-9.26-25.88-25.4V3.25h13.55v36.63c0,8.5,4.23,13,12.23,13s12.42-4.37,12.42-13V3.25Z"/>
      <path class="cls-3" d="M259.58,1.25v16.4h17.09v48.38h17.55V17.65h17.18V1.25h-51.82ZM309.4,15.65h-17.18v48.38h-13.55V15.65h-17.09V3.25h47.82v12.4Z"/>
    </g>
  </g>
</svg>