<?xml version="1.0" encoding="UTF-8"?>
<svg id="_レイヤー_2" data-name="レイヤー 2" xmlns="http://www.w3.org/2000/svg" viewBox="0 0 385.82 67.28">
  <defs>
    <style>
      .cls-1 {
        fill: none;
      }

      .cls-2 {
        fill: #fff;
      }

      .cls-3 {
        fill: #3c0f02;
      }
    </style>
  </defs>
  <g id="PC">
    <g>
      <path class="cls-1" d="M140.6,17.65h-9.08v12.3h9.08c6.26,0,7.06-3.31,7.06-6.2s-.84-6.1-7.06-6.1Z"/>
      <path class="cls-2" d="M27.63,27.9c-5.64-1.02-11.48-2.07-11.48-7.13,0-3.43,2.3-7.43,8.78-7.43,4.99,0,8.17,2.42,8.7,6.53h12.6c-.92-10.89-9.25-17.87-21.49-17.87C11.84,2,3.18,9.78,3.18,21.35c0,14.45,10.83,16.43,19.53,18.02,5.6,1.03,11.38,2.09,11.38,7.13,0,3.39-1.64,7.43-9.45,7.43-7.05,0-9.07-3.3-9.4-6.43H2.07c.75,10.99,9.3,17.78,22.57,17.78s22.61-7.6,22.61-19.35c0-14.47-10.88-16.44-19.62-18.02Z"/>
      <polygon class="cls-2" points="103.12 51.63 72.31 51.63 72.31 38.4 97.56 38.4 97.56 27.92 72.31 27.92 72.31 15.65 103.12 15.65 103.12 3.25 58.76 3.25 58.76 64.03 103.12 64.03 103.12 51.63"/>
      <path class="cls-2" d="M152.22,42.22c7.22-3.01,11.19-9.57,11.19-18.47,0-7.66-2.99-20.5-23-20.5h-24.44v60.78h13.55v-19.68h8.21l11.14,19.68h16.01l-13.77-21.35,1.1-.46ZM140.6,31.95h-11.08V15.65h11.08c6.01,0,9.06,2.73,9.06,8.1s-3.05,8.2-9.06,8.2Z"/>
      <polygon class="cls-2" points="185.85 3.25 171.29 3.25 192.1 64.03 207.76 64.03 228.58 3.25 214.4 3.25 200.12 50.43 185.85 3.25"/>
      <rect class="cls-2" x="238.95" y="3.25" width="13.55" height="60.78"/>
      <path class="cls-2" d="M313.5,25.05h14.48c-3.54-14.05-15.73-23.05-31.38-23.05-18.78,0-32.41,13.31-32.41,31.64s13.63,31.64,32.41,31.64c15.65,0,27.83-9.01,31.38-23.05h-14.48c-2.88,6.69-9.14,10.66-16.9,10.66-10.99,0-18.66-7.91-18.66-19.24s7.67-19.24,18.66-19.24c7.75,0,14.02,3.97,16.9,10.66Z"/>
      <polygon class="cls-2" points="353.01 15.65 383.82 15.65 383.82 3.25 339.46 3.25 339.46 64.03 383.82 64.03 383.82 51.63 353.01 51.63 353.01 38.4 378.26 38.4 378.26 27.92 353.01 27.92 353.01 15.65"/>
      <path class="cls-3" d="M27.98,25.93c-6.12-1.1-9.83-2-9.83-5.16,0-3.4,2.53-5.43,6.78-5.43s6.68,1.97,6.78,5.55l.03.97h16.61l-.04-1.04C47.79,8.37,38.32,0,24.73,0S1.18,8.78,1.18,21.35c0,16.12,12.24,18.36,21.17,19.99,6.06,1.11,9.74,2.01,9.74,5.16,0,2.33-.77,5.43-7.45,5.43s-7.45-3.1-7.45-5.43v-1H0l.02,1.02c.3,12.61,9.96,20.75,24.61,20.75s24.61-8.38,24.61-21.35c0-16.14-12.29-18.37-21.27-19.99ZM24.64,65.28c-13.27,0-21.82-6.78-22.57-17.78h13.17c.33,3.14,2.35,6.43,9.4,6.43,7.81,0,9.45-4.04,9.45-7.43,0-5.04-5.78-6.1-11.38-7.13-8.7-1.59-19.53-3.57-19.53-18.02C3.18,9.78,11.84,2,24.73,2s20.58,6.98,21.49,17.87h-12.6c-.53-4.11-3.71-6.53-8.7-6.53-6.48,0-8.78,4-8.78,7.43,0,5.06,5.83,6.11,11.48,7.13,8.74,1.58,19.62,3.55,19.62,18.02,0,11.75-8.88,19.35-22.61,19.35Z"/>
      <path class="cls-3" d="M56.76,66.03h48.36v-16.4h-30.81v-9.23h25.25v-14.48h-25.25v-8.27h30.81V1.25h-48.36v64.78ZM58.76,3.25h44.36v12.4h-30.81v12.27h25.25v10.48h-25.25v13.23h30.81v12.4h-44.36V3.25Z"/>
      <path class="cls-3" d="M165.41,23.75c0-14.3-9.11-22.5-25-22.5h-26.44v64.78h17.55v-19.68h5.04l11.14,19.68h20.85l-14.47-22.45c7.32-3.52,11.34-10.52,11.34-19.83ZM148.87,64.03l-11.14-19.68h-8.21v19.68h-13.55V3.25h24.44c20.01,0,23,12.85,23,20.5,0,8.9-3.97,15.46-11.19,18.47l-1.1.46,13.77,21.35h-16.01Z"/>
      <path class="cls-3" d="M140.6,15.65h-11.08v16.3h11.08c6.01,0,9.06-2.76,9.06-8.2s-3.05-8.1-9.06-8.1ZM140.6,29.95h-9.08v-12.3h9.08c6.22,0,7.06,3.09,7.06,6.1s-.8,6.2-7.06,6.2Z"/>
      <path class="cls-3" d="M200.12,43.53L187.33,1.25h-18.84l22.19,64.78h18.52L231.38,1.25h-18.46l-12.79,42.28ZM228.58,3.25l-20.82,60.78h-15.66L171.29,3.25h14.56l14.28,47.19,14.28-47.19h14.18Z"/>
      <path class="cls-3" d="M236.95,66.03h17.55V1.25h-17.55v64.78ZM238.95,3.25h13.55v60.78h-13.55V3.25Z"/>
      <path class="cls-3" d="M296.6,16.4c7.14,0,12.86,3.74,15.29,10.02l.25.64h18.33l-.26-1.21c-3.34-15.7-16.54-25.85-33.62-25.85-19.94,0-34.41,14.15-34.41,33.64s14.47,33.64,34.41,33.64c17.08,0,30.27-10.15,33.62-25.85l.26-1.21h-18.33l-.25.64c-2.43,6.27-8.15,10.02-15.29,10.02-9.81,0-16.66-7.09-16.66-17.24s6.85-17.24,16.66-17.24ZM277.94,33.64c0,11.33,7.67,19.24,18.66,19.24,7.75,0,14.02-3.97,16.9-10.66h14.48c-3.54,14.05-15.73,23.05-31.38,23.05-18.78,0-32.41-13.31-32.41-31.64s13.63-31.64,32.41-31.64c15.65,0,27.83,9,31.38,23.05h-14.48c-2.88-6.69-9.14-10.66-16.9-10.66-10.99,0-18.66,7.91-18.66,19.24Z"/>
      <path class="cls-3" d="M385.82,17.65V1.25h-48.36v64.78h48.36v-16.4h-30.81v-9.23h25.25v-14.48h-25.25v-8.27h30.81ZM378.26,38.4h-25.25v13.23h30.81v12.4h-44.36V3.25h44.36v12.4h-30.81v12.27h25.25v10.48Z"/>
    </g>
  </g>
</svg>