<?xml version="1.0" encoding="UTF-8"?>
<svg id="_レイヤー_2" data-name="レイヤー 2" xmlns="http://www.w3.org/2000/svg" viewBox="0 0 390 390">
  <defs>
    <style>
      .cls-1 {
        fill: none;
      }

      .cls-2, .cls-3, .cls-4, .cls-5, .cls-6, .cls-7, .cls-8, .cls-9, .cls-10, .cls-11, .cls-12, .cls-13, .cls-14, .cls-15, .cls-16 {
        fill: #826556;
      }

      .cls-2, .cls-3, .cls-4, .cls-5, .cls-6, .cls-7, .cls-8, .cls-9, .cls-10, .cls-11, .cls-12, .cls-13, .cls-14, .cls-15, .cls-16, .cls-17, .cls-18, .cls-19, .cls-20, .cls-21, .cls-22, .cls-23, .cls-24, .cls-25, .cls-26, .cls-27, .cls-28, .cls-29, .cls-30, .cls-31 {
        font-family: AllRoundGothic-Bold, 'All Round Gothic';
        font-weight: 700;
      }

      .cls-2, .cls-29 {
        font-size: 35.98px;
      }

      .cls-3, .cls-28 {
        font-size: 35.97px;
      }

      .cls-4, .cls-31 {
        font-size: 35.98px;
      }

      .cls-5, .cls-30 {
        font-size: 35.98px;
      }

      .cls-6, .cls-17 {
        font-size: 35.98px;
      }

      .cls-7, .cls-27 {
        font-size: 35.98px;
      }

      .cls-8, .cls-19 {
        font-size: 35.97px;
      }

      .cls-9, .cls-18 {
        font-size: 35.98px;
      }

      .cls-10, .cls-23 {
        font-size: 35.96px;
      }

      .cls-11, .cls-25 {
        font-size: 35.96px;
      }

      .cls-12, .cls-26 {
        font-size: 35.96px;
      }

      .cls-13, .cls-24 {
        font-size: 35.96px;
      }

      .cls-14, .cls-22 {
        font-size: 35.97px;
      }

      .cls-15, .cls-21 {
        font-size: 35.97px;
      }

      .cls-16, .cls-20 {
        font-size: 35.97px;
      }

      .cls-17, .cls-18, .cls-19, .cls-20, .cls-21, .cls-22, .cls-23, .cls-24, .cls-25, .cls-26, .cls-27, .cls-28, .cls-29, .cls-30, .cls-31 {
        fill: #3c0f02;
      }
    </style>
  </defs>
  <g id="PC">
    <g>
      <ellipse class="cls-1" cx="195" cy="195" rx="174.92" ry="174.8"/>
      <g>
        <text class="cls-25" transform="translate(174.06 30.55) rotate(-1.41)"><tspan x="0" y="0">W</tspan></text>
        <text class="cls-11" transform="translate(174.06 30.55) rotate(-1.41)"><tspan x="0" y="0">W</tspan></text>
      </g>
      <g>
        <text class="cls-24" transform="translate(231.81 33.85) rotate(16.53) skewX(-.02)"><tspan x="0" y="0">E</tspan></text>
        <text class="cls-13" transform="translate(231.81 33.85) rotate(16.53) skewX(-.02)"><tspan x="0" y="0">E</tspan></text>
      </g>
      <g>
        <text class="cls-20" transform="translate(279.36 52.79) rotate(34.58) skewX(-.04)"><tspan x="0" y="0">B</tspan></text>
        <text class="cls-16" transform="translate(279.36 52.79) rotate(34.58) skewX(-.04)"><tspan x="0" y="0">B</tspan></text>
      </g>
      <g>
        <text class="cls-28" transform="translate(317.81 84.03) rotate(52.47) skewX(-.04)"><tspan x="0" y="0">C</tspan></text>
        <text class="cls-3" transform="translate(317.81 84.03) rotate(52.47) skewX(-.04)"><tspan x="0" y="0">C</tspan></text>
      </g>
      <g>
        <text class="cls-17" transform="translate(43.93 262.87) rotate(-109.47) skewX(-.03)"><tspan x="0" y="0">O</tspan></text>
        <text class="cls-6" transform="translate(43.93 262.87) rotate(-109.47) skewX(-.03)"><tspan x="0" y="0">O</tspan></text>
      </g>
      <g>
        <text class="cls-18" transform="translate(359.7 179.67) rotate(88.59)"><tspan x="0" y="0">R</tspan></text>
        <text class="cls-9" transform="translate(359.7 179.67) rotate(88.59)"><tspan x="0" y="0">R</tspan></text>
      </g>
      <g>
        <text class="cls-27" transform="translate(33.29 159.67) rotate(-73.42) skewX(.02)"><tspan x="0" y="0">D</tspan></text>
        <text class="cls-7" transform="translate(33.29 159.67) rotate(-73.42) skewX(.02)"><tspan x="0" y="0">D</tspan></text>
      </g>
      <g>
        <text class="cls-30" transform="translate(333.92 284.22) rotate(124.67) skewX(.04)"><tspan x="0" y="0">I</tspan></text>
        <text class="cls-5" transform="translate(333.92 284.22) rotate(124.67) skewX(.04)"><tspan x="0" y="0">I</tspan></text>
      </g>
      <g>
        <text class="cls-22" transform="translate(85.22 71.29) rotate(-37.43) skewX(.04)"><tspan x="0" y="0">N</tspan></text>
        <text class="cls-14" transform="translate(85.22 71.29) rotate(-37.43) skewX(.04)"><tspan x="0" y="0">N</tspan></text>
      </g>
      <g>
        <text class="cls-23" transform="translate(127.23 43.97) rotate(-19.41) skewX(.03)"><tspan x="0" y="0">G</tspan></text>
        <text class="cls-10" transform="translate(127.23 43.97) rotate(-19.41) skewX(.03)"><tspan x="0" y="0">G</tspan></text>
      </g>
      <g>
        <text class="cls-25" transform="translate(215.94 359.44) rotate(178.59)"><tspan x="0" y="0">W</tspan></text>
        <text class="cls-11" transform="translate(215.94 359.44) rotate(178.59)"><tspan x="0" y="0">W</tspan></text>
      </g>
      <g>
        <text class="cls-26" transform="translate(158.19 356.15) rotate(-163.47) skewX(-.02)"><tspan x="0" y="0">E</tspan></text>
        <text class="cls-12" transform="translate(158.19 356.15) rotate(-163.47) skewX(-.02)"><tspan x="0" y="0">E</tspan></text>
      </g>
      <g>
        <text class="cls-21" transform="translate(110.64 337.21) rotate(-145.42) skewX(-.04)"><tspan x="0" y="0">B</tspan></text>
        <text class="cls-15" transform="translate(110.64 337.21) rotate(-145.42) skewX(-.04)"><tspan x="0" y="0">B</tspan></text>
      </g>
      <g>
        <text class="cls-28" transform="translate(72.19 305.97) rotate(-127.53) skewX(-.04)"><tspan x="0" y="0">C</tspan></text>
        <text class="cls-3" transform="translate(72.19 305.97) rotate(-127.53) skewX(-.04)"><tspan x="0" y="0">C</tspan></text>
      </g>
      <g>
        <text class="cls-29" transform="translate(346.08 127.13) rotate(70.53) skewX(-.03)"><tspan x="0" y="0">O</tspan></text>
        <text class="cls-2" transform="translate(346.08 127.13) rotate(70.53) skewX(-.03)"><tspan x="0" y="0">O</tspan></text>
      </g>
      <g>
        <text class="cls-18" transform="translate(30.3 210.33) rotate(-91.41)"><tspan x="0" y="0">R</tspan></text>
        <text class="cls-9" transform="translate(30.3 210.33) rotate(-91.41)"><tspan x="0" y="0">R</tspan></text>
      </g>
      <g>
        <text class="cls-27" transform="translate(356.7 230.33) rotate(106.58) skewX(.02)"><tspan x="0" y="0">D</tspan></text>
        <text class="cls-7" transform="translate(356.7 230.33) rotate(106.58) skewX(.02)"><tspan x="0" y="0">D</tspan></text>
      </g>
      <g>
        <text class="cls-31" transform="translate(56.08 105.78) rotate(-55.33) skewX(.04)"><tspan x="0" y="0">I</tspan></text>
        <text class="cls-4" transform="translate(56.08 105.78) rotate(-55.33) skewX(.04)"><tspan x="0" y="0">I</tspan></text>
      </g>
      <g>
        <text class="cls-19" transform="translate(304.78 318.71) rotate(142.57) skewX(.04)"><tspan x="0" y="0">N</tspan></text>
        <text class="cls-8" transform="translate(304.78 318.71) rotate(142.57) skewX(.04)"><tspan x="0" y="0">N</tspan></text>
      </g>
      <g>
        <text class="cls-23" transform="translate(262.78 346.03) rotate(160.59) skewX(.03)"><tspan x="0" y="0">G</tspan></text>
        <text class="cls-10" transform="translate(262.78 346.03) rotate(160.59) skewX(.03)"><tspan x="0" y="0">G</tspan></text>
      </g>
    </g>
  </g>
</svg>