<?xml version="1.0" encoding="UTF-8"?>
<svg id="_レイヤー_2" data-name="レイヤー 2" xmlns="http://www.w3.org/2000/svg" viewBox="0 0 1429.96 40.8">
  <defs>
    <style>
      .cls-1 {
        fill: #3c0f02;
      }
    </style>
  </defs>
  <g id="PC">
    <g>
      <path class="cls-1" d="M0,28.44h9.48c0,2.46,1.5,4.02,5.28,4.02s5.28-1.56,5.28-4.02c0-2.58-3-3.18-6.6-3.84C7.86,23.58.72,22.26.72,12.72.72,5.28,6.36,0,14.82,0s13.8,4.98,14.1,12.42h-9.12c-.06-2.28-1.5-4.08-4.86-4.08s-4.86,1.98-4.86,4.02c0,2.58,3,3.18,6.66,3.84,5.64,1.02,12.78,2.34,12.78,11.88,0,7.8-5.88,12.72-14.76,12.72S.18,36.06,0,28.44Z"/>
      <path class="cls-1" d="M33.48,20.4C33.48,8.64,42.12,0,54.36,0s20.88,8.64,20.88,20.4-8.64,20.4-20.88,20.4-20.88-8.64-20.88-20.4ZM65.4,20.4c0-6.6-4.38-11.4-11.04-11.4s-11.04,4.8-11.04,11.4,4.38,11.4,11.04,11.4,11.04-4.8,11.04-11.4Z"/>
      <path class="cls-1" d="M80.4,16.5c0-10.14,6-16.5,16.8-16.5s16.8,6.36,16.8,16.5v23.52h-9.72v-23.52c0-4.8-2.28-7.5-7.08-7.5s-7.08,2.7-7.08,7.5v23.52h-9.72v-23.52Z"/>
      <path class="cls-1" d="M119.16,20.4c0-11.76,8.64-20.4,20.88-20.4s20.88,8.64,20.88,20.4-8.64,20.4-20.88,20.4-20.88-8.64-20.88-20.4ZM151.08,20.4c0-6.6-4.38-11.4-11.04-11.4s-11.04,4.8-11.04,11.4,4.38,11.4,11.04,11.4,11.04-4.8,11.04-11.4Z"/>
      <path class="cls-1" d="M166.08,15.18c0-10.5,6.12-15.18,14.04-15.18,4.74,0,8.52,1.86,10.86,5.4,2.34-3.54,6.12-5.4,10.86-5.4,7.92,0,14.04,4.68,14.04,15.18v24.84h-9.72V15.18c0-4.56-2.22-6.18-5.16-6.18s-5.16,1.62-5.16,6.18v24.84h-9.72V15.18c0-4.56-2.28-6.18-5.16-6.18s-5.16,1.62-5.16,6.18v24.84h-9.72V15.18Z"/>
      <path class="cls-1" d="M223.02.78h9.72v39.24h-9.72V.78Z"/>
      <path class="cls-1" d="M256.74.78h13.86c13.8,0,21,7.86,21,19.62s-7.2,19.62-21,19.62h-13.86V.78ZM270.6,31.02c7.86,0,11.16-4.08,11.16-10.62s-3.3-10.62-11.16-10.62h-4.14v21.24h4.14Z"/>
      <path class="cls-1" d="M297.66.78h28.98v9h-19.26v6.42h15.78v7.8h-15.78v7.02h19.26v9h-28.98V.78Z"/>
      <path class="cls-1" d="M331.32,28.44h9.48c0,2.46,1.5,4.02,5.28,4.02s5.28-1.56,5.28-4.02c0-2.58-3-3.18-6.6-3.84-5.58-1.02-12.72-2.34-12.72-11.88,0-7.44,5.64-12.72,14.1-12.72s13.8,4.98,14.1,12.42h-9.12c-.06-2.28-1.5-4.08-4.86-4.08s-4.86,1.98-4.86,4.02c0,2.58,3,3.18,6.66,3.84,5.64,1.02,12.78,2.34,12.78,11.88,0,7.8-5.88,12.72-14.76,12.72s-14.58-4.74-14.76-12.36Z"/>
      <path class="cls-1" d="M366.78.78h9.72v39.24h-9.72V.78Z"/>
      <path class="cls-1" d="M382.56,20.4c0-11.76,8.64-20.4,20.88-20.4,9.78,0,17.34,5.52,19.92,13.8h-10.68c-1.86-3-5.1-4.8-9.24-4.8-6.66,0-11.04,4.8-11.04,11.4s4.38,11.4,11.04,11.4c4.92,0,8.4-1.98,10.2-5.82h-12.6v-7.8h23.22v4.26c-.96,10.68-9.3,18.36-20.82,18.36-12.24,0-20.88-8.64-20.88-20.4Z"/>
      <path class="cls-1" d="M429.06,16.5c0-10.14,6-16.5,16.8-16.5s16.8,6.36,16.8,16.5v23.52h-9.72v-23.52c0-4.8-2.28-7.5-7.08-7.5s-7.08,2.7-7.08,7.5v23.52h-9.72v-23.52Z"/>
      <path class="cls-1" d="M483.65,28.44h9.48c0,2.46,1.5,4.02,5.28,4.02s5.28-1.56,5.28-4.02c0-2.58-3-3.18-6.6-3.84-5.58-1.02-12.72-2.34-12.72-11.88,0-7.44,5.64-12.72,14.1-12.72s13.8,4.98,14.1,12.42h-9.12c-.06-2.28-1.5-4.08-4.86-4.08s-4.86,1.98-4.86,4.02c0,2.58,3,3.18,6.66,3.84,5.64,1.02,12.78,2.34,12.78,11.88,0,7.8-5.88,12.72-14.76,12.72s-14.58-4.74-14.76-12.36Z"/>
      <path class="cls-1" d="M517.13,20.4c0-11.76,8.64-20.4,20.88-20.4s20.88,8.64,20.88,20.4-8.64,20.4-20.88,20.4-20.88-8.64-20.88-20.4ZM549.05,20.4c0-6.6-4.38-11.4-11.04-11.4s-11.04,4.8-11.04,11.4,4.38,11.4,11.04,11.4,11.04-4.8,11.04-11.4Z"/>
      <path class="cls-1" d="M564.05,16.5c0-10.14,6-16.5,16.8-16.5s16.8,6.36,16.8,16.5v23.52h-9.72v-23.52c0-4.8-2.28-7.5-7.08-7.5s-7.08,2.7-7.08,7.5v23.52h-9.72v-23.52Z"/>
      <path class="cls-1" d="M602.81,20.4c0-11.76,8.64-20.4,20.88-20.4s20.88,8.64,20.88,20.4-8.64,20.4-20.88,20.4-20.88-8.64-20.88-20.4ZM634.73,20.4c0-6.6-4.38-11.4-11.04-11.4s-11.04,4.8-11.04,11.4,4.38,11.4,11.04,11.4,11.04-4.8,11.04-11.4Z"/>
      <path class="cls-1" d="M649.73,15.18c0-10.5,6.12-15.18,14.04-15.18,4.74,0,8.52,1.86,10.86,5.4,2.34-3.54,6.12-5.4,10.86-5.4,7.92,0,14.04,4.68,14.04,15.18v24.84h-9.72V15.18c0-4.56-2.22-6.18-5.16-6.18s-5.16,1.62-5.16,6.18v24.84h-9.72V15.18c0-4.56-2.28-6.18-5.16-6.18s-5.16,1.62-5.16,6.18v24.84h-9.72V15.18Z"/>
      <path class="cls-1" d="M706.67.78h9.72v39.24h-9.72V.78Z"/>
      <path class="cls-1" d="M740.39.78h13.86c13.8,0,21,7.86,21,19.62s-7.2,19.62-21,19.62h-13.86V.78ZM754.25,31.02c7.86,0,11.16-4.08,11.16-10.62s-3.3-10.62-11.16-10.62h-4.14v21.24h4.14Z"/>
      <path class="cls-1" d="M781.31.78h28.98v9h-19.26v6.42h15.78v7.8h-15.78v7.02h19.26v9h-28.98V.78Z"/>
      <path class="cls-1" d="M814.97,28.44h9.48c0,2.46,1.5,4.02,5.28,4.02s5.28-1.56,5.28-4.02c0-2.58-3-3.18-6.6-3.84-5.58-1.02-12.72-2.34-12.72-11.88,0-7.44,5.64-12.72,14.1-12.72s13.8,4.98,14.1,12.42h-9.12c-.06-2.28-1.5-4.08-4.86-4.08s-4.86,1.98-4.86,4.02c0,2.58,3,3.18,6.66,3.84,5.64,1.02,12.78,2.34,12.78,11.88,0,7.8-5.88,12.72-14.76,12.72s-14.58-4.74-14.76-12.36Z"/>
      <path class="cls-1" d="M850.43.78h9.72v39.24h-9.72V.78Z"/>
      <path class="cls-1" d="M866.21,20.4c0-11.76,8.64-20.4,20.88-20.4,9.78,0,17.34,5.52,19.92,13.8h-10.68c-1.86-3-5.1-4.8-9.24-4.8-6.66,0-11.04,4.8-11.04,11.4s4.38,11.4,11.04,11.4c4.92,0,8.4-1.98,10.2-5.82h-12.6v-7.8h23.22v4.26c-.96,10.68-9.3,18.36-20.82,18.36-12.24,0-20.88-8.64-20.88-20.4Z"/>
      <path class="cls-1" d="M912.71,16.5c0-10.14,6-16.5,16.8-16.5s16.8,6.36,16.8,16.5v23.52h-9.72v-23.52c0-4.8-2.28-7.5-7.08-7.5s-7.08,2.7-7.08,7.5v23.52h-9.72v-23.52Z"/>
      <path class="cls-1" d="M967.31,28.44h9.48c0,2.46,1.5,4.02,5.28,4.02s5.28-1.56,5.28-4.02c0-2.58-3-3.18-6.6-3.84-5.58-1.02-12.72-2.34-12.72-11.88,0-7.44,5.64-12.72,14.1-12.72s13.8,4.98,14.1,12.42h-9.12c-.06-2.28-1.5-4.08-4.86-4.08s-4.86,1.98-4.86,4.02c0,2.58,3,3.18,6.66,3.84,5.64,1.02,12.78,2.34,12.78,11.88,0,7.8-5.88,12.72-14.76,12.72s-14.58-4.74-14.76-12.36Z"/>
      <path class="cls-1" d="M1000.79,20.4c0-11.76,8.64-20.4,20.88-20.4s20.88,8.64,20.88,20.4-8.64,20.4-20.88,20.4-20.88-8.64-20.88-20.4ZM1032.71,20.4c0-6.6-4.38-11.4-11.04-11.4s-11.04,4.8-11.04,11.4,4.38,11.4,11.04,11.4,11.04-4.8,11.04-11.4Z"/>
      <path class="cls-1" d="M1047.71,16.5c0-10.14,6-16.5,16.8-16.5s16.8,6.36,16.8,16.5v23.52h-9.72v-23.52c0-4.8-2.28-7.5-7.08-7.5s-7.08,2.7-7.08,7.5v23.52h-9.72v-23.52Z"/>
      <path class="cls-1" d="M1086.47,20.4c0-11.76,8.64-20.4,20.88-20.4s20.88,8.64,20.88,20.4-8.64,20.4-20.88,20.4-20.88-8.64-20.88-20.4ZM1118.39,20.4c0-6.6-4.38-11.4-11.04-11.4s-11.04,4.8-11.04,11.4,4.38,11.4,11.04,11.4,11.04-4.8,11.04-11.4Z"/>
      <path class="cls-1" d="M1133.39,15.18c0-10.5,6.12-15.18,14.04-15.18,4.74,0,8.52,1.86,10.86,5.4,2.34-3.54,6.12-5.4,10.86-5.4,7.92,0,14.04,4.68,14.04,15.18v24.84h-9.72V15.18c0-4.56-2.22-6.18-5.16-6.18s-5.16,1.62-5.16,6.18v24.84h-9.72V15.18c0-4.56-2.28-6.18-5.16-6.18s-5.16,1.62-5.16,6.18v24.84h-9.72V15.18Z"/>
      <path class="cls-1" d="M1190.33.78h9.72v39.24h-9.72V.78Z"/>
      <path class="cls-1" d="M1224.04.78h13.86c13.8,0,21,7.86,21,19.62s-7.2,19.62-21,19.62h-13.86V.78ZM1237.9,31.02c7.86,0,11.16-4.08,11.16-10.62s-3.3-10.62-11.16-10.62h-4.14v21.24h4.14Z"/>
      <path class="cls-1" d="M1264.96.78h28.98v9h-19.26v6.42h15.78v7.8h-15.78v7.02h19.26v9h-28.98V.78Z"/>
      <path class="cls-1" d="M1298.62,28.44h9.48c0,2.46,1.5,4.02,5.28,4.02s5.28-1.56,5.28-4.02c0-2.58-3-3.18-6.6-3.84-5.58-1.02-12.72-2.34-12.72-11.88,0-7.44,5.64-12.72,14.1-12.72s13.8,4.98,14.1,12.42h-9.12c-.06-2.28-1.5-4.08-4.86-4.08s-4.86,1.98-4.86,4.02c0,2.58,3,3.18,6.66,3.84,5.64,1.02,12.78,2.34,12.78,11.88,0,7.8-5.88,12.72-14.76,12.72s-14.58-4.74-14.76-12.36Z"/>
      <path class="cls-1" d="M1334.08.78h9.72v39.24h-9.72V.78Z"/>
      <path class="cls-1" d="M1349.87,20.4c0-11.76,8.64-20.4,20.88-20.4,9.78,0,17.34,5.52,19.92,13.8h-10.68c-1.86-3-5.1-4.8-9.24-4.8-6.66,0-11.04,4.8-11.04,11.4s4.38,11.4,11.04,11.4c4.92,0,8.4-1.98,10.2-5.82h-12.6v-7.8h23.22v4.26c-.96,10.68-9.3,18.36-20.82,18.36-12.24,0-20.88-8.64-20.88-20.4Z"/>
      <path class="cls-1" d="M1396.36,16.5c0-10.14,6-16.5,16.8-16.5s16.8,6.36,16.8,16.5v23.52h-9.72v-23.52c0-4.8-2.28-7.5-7.08-7.5s-7.08,2.7-7.08,7.5v23.52h-9.72v-23.52Z"/>
    </g>
  </g>
</svg>