<?xml version="1.0" encoding="UTF-8"?>
<svg id="_レイヤー_2" data-name="レイヤー 2" xmlns="http://www.w3.org/2000/svg" viewBox="0 0 1360.64 240.78">
  <defs>
    <style>
      .cls-1 {
        fill: #3c0f02;
      }
    </style>
  </defs>
  <g id="PC">
    <g>
      <path class="cls-1" d="M1.59,140.95l8.23,4.71c-1.22,2.14-.69,4.23,2.59,6.11,3.28,1.88,5.36,1.27,6.58-.87,1.28-2.24-1.03-4.25-3.82-6.61-4.34-3.66-9.88-8.35-5.15-16.63,3.69-6.46,11.21-8.24,18.56-4.04,7.14,4.08,9.51,11.17,6.08,17.78l-7.92-4.53c1.08-2.01.72-4.29-2.19-5.96-3.02-1.73-5.2-.69-6.22,1.08-1.28,2.24,1.03,4.25,3.88,6.64,4.39,3.69,9.93,8.38,5.2,16.66-3.87,6.77-11.42,8.12-19.13,3.72-7.61-4.35-10.31-11.35-6.68-18.06Z"/>
      <path class="cls-1" d="M33.18,149.86c5.09-10.6,16.62-14.65,27.65-9.35,11.04,5.3,15.08,16.83,9.99,27.43-5.09,10.6-16.62,14.65-27.65,9.35-11.04-5.3-15.08-16.83-10-27.43ZM61.96,163.68c2.86-5.95.99-12.17-5.02-15.06-6-2.88-12.03-.45-14.89,5.5-2.86,5.95-.99,12.17,5.02,15.06,6,2.88,12.03.45,14.89-5.5Z"/>
      <path class="cls-1" d="M75.54,165.58c3.75-9.42,11.68-13.11,21.71-9.11s13.25,12.12,9.5,21.54l-8.7,21.85-9.03-3.6,8.7-21.85c1.78-4.46.66-7.81-3.8-9.59-4.46-1.78-7.58-.11-9.35,4.35l-8.7,21.85-9.03-3.6,8.7-21.85Z"/>
      <path class="cls-1" d="M108.64,182.97c3.62-11.19,14.5-16.75,26.15-12.98s17.2,14.65,13.58,25.84c-3.62,11.19-14.5,16.75-26.15,12.98-11.64-3.77-17.2-14.65-13.58-25.84ZM139.01,192.81c2.03-6.28-.66-12.2-6.99-14.25-6.34-2.05-11.98,1.17-14.01,7.45-2.03,6.28.66,12.2,6.99,14.25,6.34,2.05,11.98-1.17,14.01-7.45Z"/>
      <path class="cls-1" d="M152.71,191.8c2.46-10.21,9.5-13.33,17.2-11.47,4.61,1.11,7.85,3.8,9.29,7.79,3.1-2.89,7.21-3.82,11.82-2.71,7.7,1.85,12.56,7.83,10.1,18.04l-5.81,24.15-9.45-2.27,5.81-24.15c1.07-4.43-.71-6.53-3.57-7.22-2.8-.67-5.4.37-6.46,4.8l-5.81,24.15-9.45-2.27,5.81-24.15c1.07-4.43-.77-6.54-3.57-7.22-2.86-.69-5.4.37-6.46,4.8l-5.81,24.15-9.45-2.27,5.81-24.15Z"/>
      <path class="cls-1" d="M209.2,189.88l9.56,1.74-7.04,38.6-9.56-1.74,7.04-38.6Z"/>
      <path class="cls-1" d="M239.46,195.06l13.78,1.55c13.71,1.54,19.99,10.16,18.68,21.84-1.31,11.69-9.35,18.7-23.06,17.16l-13.78-1.55,4.38-39ZM249.85,226.66c7.81.88,11.55-2.81,12.28-9.31.73-6.5-2.09-10.92-9.91-11.8l-4.12-.46-2.37,21.11,4.12.46Z"/>
      <path class="cls-1" d="M277.63,199.12l28.93,1.56-.48,8.99-19.23-1.04-.35,6.41,15.75.85-.42,7.79-15.76-.85-.38,7.01,19.23,1.04-.49,8.99-28.93-1.56,2.12-39.18Z"/>
      <path class="cls-1" d="M308.88,228.39l9.48.02c0,2.46,1.49,4.02,5.27,4.03,3.78,0,5.28-1.55,5.29-4.01,0-2.58-2.99-3.19-6.59-3.85-5.58-1.03-12.71-2.36-12.7-11.9.01-7.44,5.66-12.71,14.12-12.69,8.22.01,13.79,5,14.08,12.44l-9.12-.02c-.06-2.28-1.49-4.08-4.85-4.09-3.48,0-4.86,1.97-4.87,4.01,0,2.58,2.99,3.19,6.65,3.85,5.64,1.03,12.78,2.36,12.76,11.9-.01,7.8-5.9,12.71-14.78,12.69-8.76-.02-14.57-4.77-14.74-12.39Z"/>
      <path class="cls-1" d="M342.71,200.52l9.71-.35,1.43,39.22-9.71.35-1.43-39.22Z"/>
      <path class="cls-1" d="M358.08,219.85c-.98-11.72,6.92-21.05,19.11-22.07,9.75-.81,17.74,4.06,21,12.1l-10.64.89c-2.1-2.83-5.48-4.36-9.61-4.02-6.64.55-10.6,5.7-10.05,12.28.55,6.58,5.31,11,11.95,10.44,4.9-.41,8.21-2.67,9.68-6.65l-12.56,1.05-.65-7.77,23.14-1.93.35,4.25c-.07,10.72-7.74,19.07-19.22,20.03-12.2,1.02-21.53-6.87-22.51-18.59Z"/>
      <path class="cls-1" d="M402.31,212.02c-1.47-10.03,3.55-17.2,14.23-18.76,10.69-1.57,17.55,3.86,19.02,13.89l3.41,23.27-9.62,1.41-3.41-23.27c-.7-4.75-3.34-7.09-8.09-6.4-4.75.7-6.61,3.7-5.92,8.45l3.41,23.27-9.62,1.41-3.41-23.27Z"/>
      <path class="cls-1" d="M456.72,215.27l9.25-2.07c.54,2.4,2.34,3.59,6.03,2.77,3.69-.83,4.81-2.68,4.27-5.08-.56-2.52-3.62-2.45-7.28-2.31-5.67.22-12.92.5-15.01-8.81-1.62-7.26,2.72-13.64,10.98-15.49,8.02-1.8,14.55,1.84,16.47,9.04l-8.9,1.99c-.56-2.21-2.36-3.65-5.63-2.92-3.4.76-4.31,2.99-3.86,4.98.56,2.52,3.62,2.45,7.34,2.29,5.73-.24,12.98-.51,15.07,8.8,1.7,7.61-2.96,13.7-11.62,15.64-8.55,1.91-15.26-1.44-17.1-8.84Z"/>
      <path class="cls-1" d="M486.37,200.49c-3.19-11.32,2.79-21.98,14.57-25.3,11.78-3.32,22.44,2.66,25.63,13.98s-2.79,21.98-14.57,25.3c-11.78,3.32-22.44-2.66-25.63-13.98ZM517.09,191.84c-1.79-6.35-7.31-9.79-13.72-7.98-6.41,1.8-9.33,7.61-7.54,13.97,1.79,6.35,7.31,9.79,13.72,7.98,6.41-1.81,9.33-7.61,7.54-13.97Z"/>
      <path class="cls-1" d="M528.89,184.23c-3.3-9.59.31-17.56,10.53-21.07,10.21-3.51,17.96.56,21.25,10.15l7.64,22.25-9.19,3.16-7.64-22.25c-1.56-4.54-4.59-6.35-9.13-4.79-4.54,1.56-5.82,4.85-4.26,9.39l7.64,22.25-9.19,3.16-7.64-22.25Z"/>
      <path class="cls-1" d="M565.57,175.74c-4.42-10.9.34-22.15,11.69-26.75s22.6.16,27.01,11.06c4.42,10.9-.34,22.15-11.69,26.75s-22.59-.16-27.01-11.06ZM595.15,163.75c-2.48-6.12-8.34-8.92-14.51-6.42-6.17,2.5-8.43,8.6-5.95,14.71s8.34,8.92,14.51,6.42c6.17-2.5,8.43-8.6,5.95-14.71Z"/>
      <path class="cls-1" d="M605.43,153.96c-4.53-9.47-1.02-16.33,6.12-19.75,4.28-2.04,8.49-2,12.13.19.58-4.2,3.19-7.51,7.47-9.55,7.15-3.41,14.69-1.83,19.21,7.65l10.71,22.41-8.77,4.19-10.71-22.41c-1.96-4.11-4.67-4.62-7.32-3.35-2.6,1.24-3.96,3.69-1.99,7.8l10.71,22.41-8.77,4.19-10.71-22.41c-1.96-4.11-4.72-4.59-7.32-3.35-2.65,1.27-3.96,3.69-1.99,7.8l10.71,22.41-8.77,4.19-10.71-22.41Z"/>
      <path class="cls-1" d="M648.73,116.73l8.59-4.55,18.37,34.67-8.59,4.55-18.37-34.67Z"/>
      <path class="cls-1" d="M678.56,100.41l12.31-6.37c12.26-6.35,22.26-2.68,27.67,7.77s2.63,20.73-9.63,27.08l-12.31,6.37-18.04-34.85ZM704.77,120.89c6.98-3.61,8.04-8.75,5.03-14.56-3.01-5.81-7.81-7.91-14.79-4.3l-3.68,1.9,9.77,18.86,3.68-1.9Z"/>
      <path class="cls-1" d="M716.24,81.17l26.25-12.27,3.81,8.15-17.45,8.16,2.72,5.82,14.29-6.68,3.3,7.07-14.29,6.68,2.97,6.36,17.45-8.16,3.81,8.15-26.25,12.27-16.62-35.55Z"/>
      <path class="cls-1" d="M758.72,91.95l8.74-3.68c.95,2.27,2.94,3.12,6.43,1.66,3.48-1.47,4.26-3.49,3.31-5.75-1-2.38-4-1.77-7.57-.98-5.54,1.23-12.63,2.78-16.33-6.01-2.89-6.86.26-13.91,8.06-17.19,7.58-3.19,14.65-.77,17.81,5.97l-8.41,3.54c-.94-2.08-2.97-3.18-6.06-1.87-3.21,1.35-3.71,3.71-2.92,5.59,1,2.38,4,1.77,7.63.95,5.59-1.25,12.69-2.8,16.39,5.99,3.03,7.19-.48,14-8.67,17.45-8.07,3.4-15.28,1.29-18.4-5.66Z"/>
      <path class="cls-1" d="M781.71,52.53l9.07-3.5,14.12,36.61-9.07,3.5-14.12-36.61Z"/>
      <path class="cls-1" d="M803.98,64.77c-3.8-11.13,1.59-22.1,13.18-26.05,9.26-3.16,18.2-.37,23.31,6.63l-10.11,3.45c-2.73-2.24-6.38-2.9-10.29-1.56-6.3,2.15-8.9,8.11-6.77,14.35s7.83,9.38,14.13,7.23c4.66-1.59,7.31-4.58,7.78-8.8l-11.93,4.07-2.52-7.38,21.98-7.49,1.38,4.03c2.54,10.42-2.88,20.38-13.78,24.1-11.58,3.95-22.55-1.44-26.35-12.57Z"/>
      <path class="cls-1" d="M847.81,45.99c-2.72-9.77,1.35-17.51,11.75-20.41,10.4-2.9,17.89,1.62,20.62,11.38l6.32,22.66-9.36,2.61-6.32-22.66c-1.29-4.62-4.21-6.61-8.83-5.32s-6.1,4.5-4.81,9.13l6.32,22.66-9.36,2.61-6.32-22.66Z"/>
      <path class="cls-1" d="M904.32,43.53l9.3-1.85c.48,2.41,2.26,3.65,5.96,2.91s4.88-2.56,4.39-4.97c-.5-2.53-3.56-2.53-7.22-2.48-5.67.09-12.93.19-14.79-9.17-1.45-7.3,3.05-13.58,11.35-15.23,8.06-1.6,14.51,2.19,16.25,9.43l-8.95,1.78c-.5-2.22-2.27-3.71-5.56-3.05-3.41.68-4.38,2.89-3.98,4.89.5,2.53,3.56,2.53,7.28,2.47,5.73-.1,12.99-.2,14.85,9.16,1.52,7.65-3.29,13.62-12,15.36-8.59,1.71-15.23-1.81-16.89-9.25Z"/>
      <path class="cls-1" d="M936.47,28.9c-1.58-11.65,5.81-21.38,17.94-23.03,12.13-1.65,21.85,5.75,23.44,17.4,1.58,11.65-5.81,21.38-17.94,23.03-12.13,1.65-21.85-5.75-23.44-17.4ZM968.1,24.59c-.89-6.54-5.88-10.71-12.47-9.81s-10.29,6.24-9.4,12.78,5.88,10.71,12.48,9.81c6.6-.9,10.29-6.24,9.4-12.78Z"/>
      <path class="cls-1" d="M983.78,18.88c-.66-10.12,4.91-16.86,15.69-17.56,10.78-.71,17.18,5.25,17.84,15.37l1.54,23.47-9.7.64-1.54-23.47c-.31-4.79-2.76-7.33-7.55-7.02-4.79.31-6.89,3.16-6.58,7.95l1.54,23.47-9.7.63-1.54-23.47Z"/>
      <path class="cls-1" d="M1023.8,20.24c.09-11.76,8.8-20.33,21.04-20.23s20.81,8.8,20.72,20.56c-.09,11.76-8.8,20.33-21.04,20.23s-20.81-8.8-20.72-20.56ZM1055.72,20.49c.05-6.6-4.29-11.43-10.95-11.49-6.66-.05-11.08,4.71-11.13,11.31s4.29,11.43,10.95,11.49c6.66.05,11.08-4.71,11.13-11.31Z"/>
      <path class="cls-1" d="M1072.6,15.52c1.04-10.45,7.59-14.5,15.47-13.72,4.72.47,8.29,2.69,10.27,6.45,2.68-3.29,6.62-4.77,11.34-4.3,7.88.78,13.51,6.05,12.47,16.5l-2.46,24.72-9.67-.96,2.46-24.72c.45-4.54-1.6-6.37-4.52-6.66-2.87-.29-5.3,1.1-5.75,5.64l-2.46,24.72-9.67-.96,2.46-24.72c.45-4.54-1.66-6.38-4.52-6.66-2.93-.29-5.3,1.1-5.75,5.64l-2.46,24.72-9.67-.96,2.46-24.72Z"/>
      <path class="cls-1" d="M1132.89,8.06l9.58,1.62-6.54,38.69-9.58-1.62,6.54-38.69Z"/>
      <path class="cls-1" d="M1168.94,14.8l13.42,3.48c13.36,3.46,18.36,12.88,15.41,24.26-2.95,11.39-11.89,17.19-25.25,13.73l-13.42-3.48,9.84-37.99ZM1174.77,47.55c7.61,1.97,11.83-1.15,13.47-7.48,1.64-6.33-.53-11.11-8.14-13.08l-4.01-1.04-5.33,20.56,4.01,1.04Z"/>
      <path class="cls-1" d="M1210.9,26.17l27.44,9.34-2.9,8.52-18.24-6.21-2.07,6.08,14.94,5.08-2.51,7.38-14.94-5.08-2.26,6.65,18.24,6.21-2.9,8.52-27.44-9.34,12.64-37.15Z"/>
      <path class="cls-1" d="M1234.25,63.53l8.74,3.67c-.95,2.27-.17,4.29,3.32,5.75,3.49,1.46,5.47.6,6.42-1.67,1-2.38-1.54-4.09-4.6-6.09-4.75-3.1-10.83-7.08-7.14-15.88,2.88-6.86,10.12-9.55,17.92-6.28,7.58,3.18,10.8,9.93,8.2,16.91l-8.41-3.53c.83-2.13.19-4.34-2.91-5.64-3.21-1.35-5.25-.05-6.04,1.83-1,2.38,1.54,4.09,4.66,6.12,4.81,3.12,10.88,7.1,7.2,15.9-3.01,7.2-10.34,9.46-18.53,6.03-8.08-3.39-11.62-10.01-8.84-17.11Z"/>
      <path class="cls-1" d="M1279.09,52.83l8.75,4.22-17.04,35.35-8.76-4.22,17.04-35.35Z"/>
      <path class="cls-1" d="M1285.84,77.53c5.82-10.22,17.6-13.45,28.24-7.39,8.5,4.84,12.34,13.38,10.48,21.85l-9.28-5.29c-.13-3.53-2.06-6.7-5.65-8.74-5.79-3.3-11.97-1.29-15.24,4.44-3.27,5.74-1.83,12.07,3.95,15.37,4.28,2.43,8.28,2.44,11.74,0l-10.95-6.24,3.86-6.78,20.18,11.49-2.11,3.7c-6.12,8.81-17.17,11.35-27.18,5.65-10.64-6.06-13.87-17.84-8.05-28.06Z"/>
      <path class="cls-1" d="M1329.71,98.58c5.94-8.22,14.53-9.86,23.28-3.53,8.75,6.33,9.89,14.99,3.95,23.21l-13.78,19.06-7.88-5.69,13.77-19.06c2.81-3.89,2.54-7.41-1.35-10.23-3.89-2.81-7.32-1.96-10.13,1.93l-13.77,19.06-7.88-5.69,13.78-19.06Z"/>
    </g>
  </g>
</svg>